# xmcd
#
# Track frame offsets:
#	150
#	15215
#	26120
#	40695
#	57780
#	71732
#	86517
#	102080
#	114200
#	129515
#	139575
#	149760
#	166282
#	179837
#	194102
#	209752
#	226710
#	245717
#	255082
#
# Disc length: 3647
#
# Revision: 2
# Processed by: cddbd v1.5.1PL0 Copyright (c) Steve Scherf et al.
# Submitted via: audiograbber 1.83.01
# Normalized: r1:DSETVAR1
#
DISCID=0c0e3d13
DTITLE=Various Artist - Herbert's Country Treff
DYEAR=1900
DGENRE=Country
TTITLE0=Tom Astor - Sonntagmorgen
TTITLE1=Porky and Mike - Give A Little,Take A Little
TTITLE2=H.Lammers Meyer and E.L.Hillbillies - Moonshine Ladies
TTITLE3=New Mavericks - Highway Deiner Träume
TTITLE4=Country Lady  Dagmar - C'est La Vie
TTITLE5=Bieber's Farm - Êinmal Im Leben Nach Nashville
TTITLE6=Rugy and Howard - Es Ist So Schön Bei Euch Zu Sein
TTITLE7=Tex Harper - After Sweet Memories
TTITLE8=Porky and Mike - American Dream
TTITLE9=Buffalo Bernie - On Tour
TTITLE10=H.Lammers Meyer and E.L.Hillbillies - Geh Nach Haus
TTITLE11=Westbrook Band - Pick A Pale Of Cotten/Ride A Train
TTITLE12=Country Lady Dagmar - Anchorge
TTITLE13=Rugy and Howard - Ich Danke Dir
TTITLE14=New Mavericks - Sechs Tage Allein
TTITLE15=Buffalo Bernie - It's Country Time
TTITLE16=Tex Harper - Mein Freund Hasso
TTITLE17=H.Lammers and E.L.Hillbillies - Honky Tonk Hearts
TTITLE18=Porky and Mike - The Borderline
EXTD=
EXTT0=
EXTT1=
EXTT2=
EXTT3=
EXTT4=
EXTT5=
EXTT6=
EXTT7=
EXTT8=
EXTT9=
EXTT10=
EXTT11=
EXTT12=
EXTT13=
EXTT14=
EXTT15=
EXTT16=
EXTT17=
EXTT18=
PLAYORDER=
